<svg width="138" height="126" viewBox="0 0 138 126" fill="none" xmlns="http://www.w3.org/2000/svg">
<path d="M92.158 14.4167C71.1059 -4.8048 36.8421 -4.8048 15.79 14.4167C-5.25755 33.6423 -5.25755 64.9225 15.79 84.1481C34.5374 101.261 63.7356 103.095 84.774 89.7317C85.2167 91.6442 86.2298 93.4693 87.859 94.9568L118.518 122.949C122.985 127.02 130.205 127.02 134.65 122.949C139.113 118.874 139.113 112.282 134.65 108.22L103.992 80.2188C102.371 78.7438 100.368 77.8146 98.2733 77.4104C112.918 58.1973 110.91 31.5422 92.158 14.4167ZM82.4785 75.3103C66.7613 89.6608 41.1821 89.6608 25.4695 75.3103C9.7614 60.9599 9.7614 37.6091 25.4695 23.2586C41.1821 8.91232 66.7613 8.91232 82.4785 23.2586C98.1957 37.6091 98.1957 60.9599 82.4785 75.3103Z" fill="white"/>
</svg>
